<svg width="101" height="38" viewBox="0 0 101 38" fill="none" xmlns="http://www.w3.org/2000/svg">
<path fill-rule="evenodd" clip-rule="evenodd" d="M19 32.6562C11.4579 32.6562 5.34375 26.5421 5.34375 19C5.34375 11.4579 11.4579 5.34375 19 5.34375C26.5421 5.34375 32.6562 11.4579 32.6562 19C32.6562 26.5421 26.5421 32.6562 19 32.6562ZM18.9258 11.9893C22.9475 11.9893 24.3304 14.6824 25.4567 16.6186C27.0596 19.3736 27.2277 21.243 30.784 22.685C31.1719 20.8139 31.1719 21.0143 31.1719 18.9258C31.1719 12.1625 25.689 6.67969 18.9258 6.67969C12.1625 6.67969 6.67969 12.1625 6.67969 18.9258C6.67969 20.6491 6.44174 20.9435 7.05805 22.685C10.1686 21.6627 11.6237 18.3518 12.2044 16.8745C13.0246 14.7881 14.904 11.9894 18.9258 11.9894V11.9893ZM19 15.6431C16.4576 15.6431 14.3728 20.3964 13.8152 21.5331C13.2577 22.67 11.3535 25.3101 8.72293 25.9717C10.9171 29.2695 14.6677 31.4428 18.9258 31.4428C23.1485 31.4428 26.8719 29.3056 29.0736 26.0538C26.8719 24.4539 25.7128 23.7804 24.0963 21.5331C22.7613 19.677 21.5424 15.6431 19 15.6431Z" fill="black" stroke="black" stroke-width="0.25"/>
<path d="M50.224 25.5V12.9H52.528V18.138H58.18V12.9H60.484V25.5H58.18V20.01H52.528V25.5H50.224ZM62.933 25.5V12.9H65.237V25.5H62.933ZM67.6791 25.5V12.9H72.3051C73.3131 12.9 74.1411 13.074 74.7891 13.422C75.4491 13.758 75.9411 14.22 76.2651 14.808C76.5891 15.384 76.7511 16.026 76.7511 16.734C76.7511 17.502 76.5471 18.204 76.1391 18.84C75.7431 19.476 75.1191 19.938 74.2671 20.226L76.8771 25.5H74.2311L71.8911 20.532H69.9831V25.5H67.6791ZM69.9831 18.84H72.1611C72.9291 18.84 73.4931 18.654 73.8531 18.282C74.2131 17.91 74.3931 17.418 74.3931 16.806C74.3931 16.206 74.2131 15.726 73.8531 15.366C73.5051 15.006 72.9351 14.826 72.1431 14.826H69.9831V18.84ZM78.8939 25.5V12.9H87.1199V14.754H81.1979V18.21H86.5799V20.01H81.1979V23.646H87.1199V25.5H78.8939ZM89.3002 25.5V12.9H93.6022C95.0782 12.9 96.2902 13.164 97.2382 13.692C98.1982 14.208 98.9062 14.94 99.3622 15.888C99.8302 16.824 100.064 17.928 100.064 19.2C100.064 20.472 99.8302 21.582 99.3622 22.53C98.9062 23.466 98.1982 24.198 97.2382 24.726C96.2902 25.242 95.0782 25.5 93.6022 25.5H89.3002ZM91.6042 23.52H93.4942C94.5502 23.52 95.3842 23.352 95.9962 23.016C96.6082 22.668 97.0462 22.176 97.3102 21.54C97.5742 20.892 97.7062 20.112 97.7062 19.2C97.7062 18.3 97.5742 17.526 97.3102 16.878C97.0462 16.23 96.6082 15.732 95.9962 15.384C95.3842 15.036 94.5502 14.862 93.4942 14.862H91.6042V23.52Z" fill="#040415"/>
</svg>
