<svg width="15" height="15" viewBox="0 0 15 15" fill="none" xmlns="http://www.w3.org/2000/svg">
<g clip-path="url(#clip0_8_47)">
<path d="M1.25 3.75H13.75M6.25 6.875V10M8.75 6.875V10M2.5 3.75H12.5L11.5125 12.6375C11.4787 12.9434 11.3332 13.226 11.1039 13.4313C10.8746 13.6365 10.5777 13.75 10.27 13.75H4.73C4.42227 13.75 4.12535 13.6365 3.89609 13.4313C3.66683 13.226 3.52135 12.9434 3.4875 12.6375L2.5 3.75ZM4.59062 1.96688C4.69172 1.75248 4.85169 1.57125 5.05188 1.44432C5.25206 1.31739 5.48422 1.25 5.72125 1.25H9.27875C9.51589 1.24988 9.74817 1.31722 9.94848 1.44415C10.1488 1.57109 10.3089 1.75238 10.41 1.96688L11.25 3.75H3.75L4.59062 1.96688Z" stroke="#4E5FFF" stroke-width="1.25" stroke-linecap="round" stroke-linejoin="round"/>
</g>
<defs>
<clipPath id="clip0_8_47">
<rect width="15" height="15" fill="white"/>
</clipPath>
</defs>
</svg>
