<svg width="15" height="15" viewBox="0 0 15 15" fill="none" xmlns="http://www.w3.org/2000/svg">
<path d="M10.2963 3.38L11.62 4.70312M11.1475 2.21437L7.56813 5.79375C7.38318 5.97844 7.25705 6.21374 7.20563 6.47L6.875 8.125L8.53 7.79375C8.78625 7.7425 9.02125 7.61687 9.20625 7.43187L12.7856 3.8525C12.8932 3.74494 12.9785 3.61724 13.0367 3.47671C13.0949 3.33617 13.1249 3.18555 13.1249 3.03344C13.1249 2.88132 13.0949 2.7307 13.0367 2.59016C12.9785 2.44963 12.8932 2.32193 12.7856 2.21437C12.6781 2.10681 12.5504 2.02149 12.4098 1.96328C12.2693 1.90507 12.1187 1.87511 11.9666 1.87511C11.8144 1.87511 11.6638 1.90507 11.5233 1.96328C11.3828 2.02149 11.2551 2.10681 11.1475 2.21437Z" stroke="#4E5FFF" stroke-width="1.25" stroke-linecap="round" stroke-linejoin="round"/>
<path d="M11.875 9.375V11.25C11.875 11.5815 11.7433 11.8995 11.5089 12.1339C11.2745 12.3683 10.9565 12.5 10.625 12.5H3.75C3.41848 12.5 3.10054 12.3683 2.86612 12.1339C2.6317 11.8995 2.5 11.5815 2.5 11.25V4.375C2.5 4.04348 2.6317 3.72554 2.86612 3.49112C3.10054 3.2567 3.41848 3.125 3.75 3.125H5.625" stroke="#4E5FFF" stroke-width="1.25" stroke-linecap="round" stroke-linejoin="round"/>
</svg>
