<svg width="323" height="38" viewBox="0 0 323 38" fill="none" xmlns="http://www.w3.org/2000/svg">
<path d="M6.04167 12.25H22.9583M6.04167 19.5H22.9583M6.04167 26.75H22.9583" stroke="#040415" stroke-width="2" stroke-linecap="round"/>
<path fill-rule="evenodd" clip-rule="evenodd" d="M130 32.6562C122.458 32.6562 116.344 26.5421 116.344 19C116.344 11.4579 122.458 5.34375 130 5.34375C137.542 5.34375 143.656 11.4579 143.656 19C143.656 26.5421 137.542 32.6562 130 32.6562ZM129.926 11.9893C133.948 11.9893 135.33 14.6824 136.457 16.6186C138.06 19.3736 138.228 21.243 141.784 22.685C142.172 20.8139 142.172 21.0143 142.172 18.9258C142.172 12.1625 136.689 6.67969 129.926 6.67969C123.163 6.67969 117.68 12.1625 117.68 18.9258C117.68 20.6491 117.442 20.9435 118.058 22.685C121.169 21.6627 122.624 18.3518 123.204 16.8745C124.025 14.7881 125.904 11.9894 129.926 11.9894V11.9893ZM130 15.6431C127.458 15.6431 125.373 20.3964 124.815 21.5331C124.258 22.67 122.354 25.3101 119.723 25.9717C121.917 29.2695 125.668 31.4428 129.926 31.4428C134.149 31.4428 137.872 29.3056 140.074 26.0538C137.872 24.4539 136.713 23.7804 135.096 21.5331C133.761 19.677 132.542 15.6431 130 15.6431Z" fill="black" stroke="black" stroke-width="0.25"/>
<path d="M161.224 25.5V12.9H163.528V18.138H169.18V12.9H171.484V25.5H169.18V20.01H163.528V25.5H161.224ZM173.933 25.5V12.9H176.237V25.5H173.933ZM178.679 25.5V12.9H183.305C184.313 12.9 185.141 13.074 185.789 13.422C186.449 13.758 186.941 14.22 187.265 14.808C187.589 15.384 187.751 16.026 187.751 16.734C187.751 17.502 187.547 18.204 187.139 18.84C186.743 19.476 186.119 19.938 185.267 20.226L187.877 25.5H185.231L182.891 20.532H180.983V25.5H178.679ZM180.983 18.84H183.161C183.929 18.84 184.493 18.654 184.853 18.282C185.213 17.91 185.393 17.418 185.393 16.806C185.393 16.206 185.213 15.726 184.853 15.366C184.505 15.006 183.935 14.826 183.143 14.826H180.983V18.84ZM189.894 25.5V12.9H198.12V14.754H192.198V18.21H197.58V20.01H192.198V23.646H198.12V25.5H189.894ZM200.3 25.5V12.9H204.602C206.078 12.9 207.29 13.164 208.238 13.692C209.198 14.208 209.906 14.94 210.362 15.888C210.83 16.824 211.064 17.928 211.064 19.2C211.064 20.472 210.83 21.582 210.362 22.53C209.906 23.466 209.198 24.198 208.238 24.726C207.29 25.242 206.078 25.5 204.602 25.5H200.3ZM202.604 23.52H204.494C205.55 23.52 206.384 23.352 206.996 23.016C207.608 22.668 208.046 22.176 208.31 21.54C208.574 20.892 208.706 20.112 208.706 19.2C208.706 18.3 208.574 17.526 208.31 16.878C208.046 16.23 207.608 15.732 206.996 15.384C206.384 15.036 205.55 14.862 204.494 14.862H202.604V23.52Z" fill="#040415"/>
</svg>
