<svg width="81" height="81" viewBox="0 0 81 81" fill="none" xmlns="http://www.w3.org/2000/svg">
<path fill-rule="evenodd" clip-rule="evenodd" d="M40.5 69.6094C24.4234 69.6094 11.3906 56.5766 11.3906 40.5C11.3906 24.4234 24.4234 11.3906 40.5 11.3906C56.5766 11.3906 69.6094 24.4234 69.6094 40.5C69.6094 56.5766 56.5766 69.6094 40.5 69.6094ZM40.3418 25.5561C48.9145 25.5561 51.8621 31.2967 54.263 35.4239C57.6796 41.2964 58.0381 45.2812 65.6185 48.3548C66.4453 44.3665 66.4453 44.7936 66.4453 40.3418C66.4453 25.9254 54.7582 14.2383 40.3418 14.2383C25.9254 14.2383 14.2383 25.9254 14.2383 40.3418C14.2383 44.0153 13.7311 44.6427 15.0448 48.3548C21.6751 46.1757 24.7768 39.1183 26.0146 35.9694C27.7631 31.522 31.7691 25.5565 40.3418 25.5565V25.5561ZM40.5 33.3445C35.0806 33.3445 30.6367 43.4764 29.4482 45.8995C28.2598 48.3228 24.201 53.9504 18.5936 55.3606C23.2707 62.3902 31.2654 67.0228 40.3418 67.0228C49.3429 67.0228 57.2797 62.4671 61.9726 55.5356C57.2797 52.1254 54.8088 50.6899 51.3632 45.8995C48.5174 41.9431 45.9194 33.3445 40.5 33.3445Z" fill="white"/>
</svg>
