<svg width="112" height="112" viewBox="0 0 112 112" fill="none" xmlns="http://www.w3.org/2000/svg">
<circle cx="56" cy="56" r="56" fill="white" fill-opacity="0.1"/>
<circle cx="56" cy="56" r="55.5" stroke="white" stroke-opacity="0.28"/>
<path d="M22.4633 51V42.6H25.4033C26.0593 42.6 26.6033 42.712 27.0353 42.936C27.4673 43.152 27.7873 43.452 27.9953 43.836C28.2113 44.212 28.3193 44.64 28.3193 45.12C28.3193 45.576 28.2153 45.996 28.0073 46.38C27.8073 46.756 27.4913 47.056 27.0593 47.28C26.6273 47.504 26.0753 47.616 25.4033 47.616H23.7353V51H22.4633ZM23.7353 46.572H25.3433C25.9433 46.572 26.3713 46.444 26.6273 46.188C26.8913 45.924 27.0233 45.568 27.0233 45.12C27.0233 44.656 26.8913 44.296 26.6273 44.04C26.3713 43.776 25.9433 43.644 25.3433 43.644H23.7353V46.572ZM29.5286 51V45.048H30.6686L30.7766 46.176C30.9846 45.784 31.2726 45.476 31.6406 45.252C32.0166 45.02 32.4686 44.904 32.9966 44.904V46.236H32.6486C32.2966 46.236 31.9806 46.296 31.7006 46.416C31.4286 46.528 31.2086 46.724 31.0406 47.004C30.8806 47.276 30.8006 47.656 30.8006 48.144V51H29.5286ZM36.7071 51.144C36.1391 51.144 35.6271 51.016 35.1711 50.76C34.7231 50.496 34.3671 50.132 34.1031 49.668C33.8391 49.196 33.7071 48.648 33.7071 48.024C33.7071 47.4 33.8391 46.856 34.1031 46.392C34.3751 45.92 34.7391 45.556 35.1951 45.3C35.6511 45.036 36.1591 44.904 36.7191 44.904C37.2871 44.904 37.7951 45.036 38.2431 45.3C38.6991 45.556 39.0591 45.92 39.3231 46.392C39.5951 46.856 39.7311 47.4 39.7311 48.024C39.7311 48.648 39.5951 49.196 39.3231 49.668C39.0591 50.132 38.6991 50.496 38.2431 50.76C37.7871 51.016 37.2751 51.144 36.7071 51.144ZM36.7071 50.052C37.0111 50.052 37.2911 49.976 37.5471 49.824C37.8111 49.672 38.0231 49.448 38.1831 49.152C38.3431 48.848 38.4231 48.472 38.4231 48.024C38.4231 47.576 38.3431 47.204 38.1831 46.908C38.0311 46.604 37.8231 46.376 37.5591 46.224C37.3031 46.072 37.0231 45.996 36.7191 45.996C36.4151 45.996 36.1311 46.072 35.8671 46.224C35.6111 46.376 35.4031 46.604 35.2431 46.908C35.0831 47.204 35.0031 47.576 35.0031 48.024C35.0031 48.472 35.0831 48.848 35.2431 49.152C35.4031 49.448 35.6111 49.672 35.8671 49.824C36.1231 49.976 36.4031 50.052 36.7071 50.052ZM41.4067 51V46.116H40.5547V45.048H41.4067V44.184C41.4067 43.536 41.5667 43.072 41.8867 42.792C42.2147 42.504 42.6747 42.36 43.2667 42.36H43.8907V43.44H43.4587C43.1787 43.44 42.9787 43.5 42.8587 43.62C42.7387 43.732 42.6787 43.924 42.6787 44.196V45.048H44.0467V46.116H42.6787V51H41.4067ZM47.8048 51.144C47.2208 51.144 46.7008 51.016 46.2448 50.76C45.7968 50.496 45.4448 50.132 45.1888 49.668C44.9328 49.204 44.8048 48.664 44.8048 48.048C44.8048 47.424 44.9288 46.876 45.1768 46.404C45.4328 45.932 45.7848 45.564 46.2328 45.3C46.6888 45.036 47.2168 44.904 47.8168 44.904C48.4008 44.904 48.9088 45.036 49.3408 45.3C49.7728 45.556 50.1088 45.9 50.3488 46.332C50.5888 46.764 50.7088 47.24 50.7088 47.76C50.7088 47.84 50.7048 47.928 50.6968 48.024C50.6968 48.112 50.6928 48.212 50.6848 48.324H46.0528C46.0928 48.9 46.2808 49.34 46.6168 49.644C46.9608 49.94 47.3568 50.088 47.8048 50.088C48.1648 50.088 48.4648 50.008 48.7048 49.848C48.9528 49.68 49.1368 49.456 49.2568 49.176H50.5288C50.3688 49.736 50.0488 50.204 49.5688 50.58C49.0968 50.956 48.5088 51.144 47.8048 51.144ZM47.8048 45.948C47.3808 45.948 47.0048 46.076 46.6768 46.332C46.3488 46.58 46.1488 46.956 46.0768 47.46H49.4368C49.4128 46.996 49.2488 46.628 48.9448 46.356C48.6408 46.084 48.2608 45.948 47.8048 45.948ZM54.4046 51.144C53.6526 51.144 53.0326 50.96 52.5446 50.592C52.0566 50.224 51.7766 49.736 51.7046 49.128H52.9886C53.0526 49.4 53.2046 49.636 53.4446 49.836C53.6846 50.028 54.0006 50.124 54.3926 50.124C54.7766 50.124 55.0566 50.044 55.2326 49.884C55.4086 49.724 55.4966 49.54 55.4966 49.332C55.4966 49.028 55.3726 48.824 55.1246 48.72C54.8846 48.608 54.5486 48.508 54.1166 48.42C53.7806 48.348 53.4446 48.252 53.1086 48.132C52.7806 48.012 52.5046 47.844 52.2806 47.628C52.0646 47.404 51.9566 47.104 51.9566 46.728C51.9566 46.208 52.1566 45.776 52.5566 45.432C52.9566 45.08 53.5166 44.904 54.2366 44.904C54.9006 44.904 55.4366 45.064 55.8446 45.384C56.2606 45.704 56.5046 46.156 56.5766 46.74H55.3526C55.3126 46.484 55.1926 46.284 54.9926 46.14C54.8006 45.996 54.5406 45.924 54.2126 45.924C53.8926 45.924 53.6446 45.992 53.4686 46.128C53.2926 46.256 53.2046 46.424 53.2046 46.632C53.2046 46.84 53.3246 47.004 53.5646 47.124C53.8126 47.244 54.1366 47.352 54.5366 47.448C54.9366 47.536 55.3046 47.64 55.6406 47.76C55.9846 47.872 56.2606 48.04 56.4686 48.264C56.6766 48.488 56.7806 48.816 56.7806 49.248C56.7886 49.792 56.5766 50.244 56.1446 50.604C55.7206 50.964 55.1406 51.144 54.4046 51.144ZM60.5452 51.144C59.7932 51.144 59.1732 50.96 58.6852 50.592C58.1972 50.224 57.9172 49.736 57.8452 49.128H59.1292C59.1932 49.4 59.3452 49.636 59.5852 49.836C59.8252 50.028 60.1412 50.124 60.5332 50.124C60.9172 50.124 61.1972 50.044 61.3732 49.884C61.5492 49.724 61.6372 49.54 61.6372 49.332C61.6372 49.028 61.5132 48.824 61.2652 48.72C61.0252 48.608 60.6892 48.508 60.2572 48.42C59.9212 48.348 59.5852 48.252 59.2492 48.132C58.9212 48.012 58.6452 47.844 58.4212 47.628C58.2052 47.404 58.0972 47.104 58.0972 46.728C58.0972 46.208 58.2972 45.776 58.6972 45.432C59.0972 45.08 59.6572 44.904 60.3772 44.904C61.0412 44.904 61.5772 45.064 61.9852 45.384C62.4012 45.704 62.6452 46.156 62.7172 46.74H61.4932C61.4532 46.484 61.3332 46.284 61.1332 46.14C60.9412 45.996 60.6812 45.924 60.3532 45.924C60.0332 45.924 59.7852 45.992 59.6092 46.128C59.4332 46.256 59.3452 46.424 59.3452 46.632C59.3452 46.84 59.4652 47.004 59.7052 47.124C59.9532 47.244 60.2772 47.352 60.6772 47.448C61.0772 47.536 61.4452 47.64 61.7812 47.76C62.1252 47.872 62.4012 48.04 62.6092 48.264C62.8172 48.488 62.9212 48.816 62.9212 49.248C62.9292 49.792 62.7172 50.244 62.2852 50.604C61.8612 50.964 61.2812 51.144 60.5452 51.144ZM65.0299 43.92C64.7899 43.92 64.5899 43.848 64.4299 43.704C64.2779 43.552 64.2019 43.364 64.2019 43.14C64.2019 42.916 64.2779 42.732 64.4299 42.588C64.5899 42.436 64.7899 42.36 65.0299 42.36C65.2699 42.36 65.4659 42.436 65.6179 42.588C65.7779 42.732 65.8579 42.916 65.8579 43.14C65.8579 43.364 65.7779 43.552 65.6179 43.704C65.4659 43.848 65.2699 43.92 65.0299 43.92ZM64.3939 51V45.048H65.6659V51H64.3939ZM70.129 51.144C69.561 51.144 69.049 51.016 68.593 50.76C68.145 50.496 67.789 50.132 67.525 49.668C67.261 49.196 67.129 48.648 67.129 48.024C67.129 47.4 67.261 46.856 67.525 46.392C67.797 45.92 68.161 45.556 68.617 45.3C69.073 45.036 69.581 44.904 70.141 44.904C70.709 44.904 71.217 45.036 71.665 45.3C72.121 45.556 72.481 45.92 72.745 46.392C73.017 46.856 73.153 47.4 73.153 48.024C73.153 48.648 73.017 49.196 72.745 49.668C72.481 50.132 72.121 50.496 71.665 50.76C71.209 51.016 70.697 51.144 70.129 51.144ZM70.129 50.052C70.433 50.052 70.713 49.976 70.969 49.824C71.233 49.672 71.445 49.448 71.605 49.152C71.765 48.848 71.845 48.472 71.845 48.024C71.845 47.576 71.765 47.204 71.605 46.908C71.453 46.604 71.245 46.376 70.981 46.224C70.725 46.072 70.445 45.996 70.141 45.996C69.837 45.996 69.553 46.072 69.289 46.224C69.033 46.376 68.825 46.604 68.665 46.908C68.505 47.204 68.425 47.576 68.425 48.024C68.425 48.472 68.505 48.848 68.665 49.152C68.825 49.448 69.033 49.672 69.289 49.824C69.545 49.976 69.825 50.052 70.129 50.052ZM74.5286 51V45.048H75.6566L75.7526 46.092C75.9366 45.724 76.2046 45.436 76.5566 45.228C76.9166 45.012 77.3286 44.904 77.7926 44.904C78.5126 44.904 79.0766 45.128 79.4846 45.576C79.9006 46.024 80.1086 46.692 80.1086 47.58V51H78.8486V47.712C78.8486 46.56 78.3766 45.984 77.4326 45.984C76.9606 45.984 76.5686 46.152 76.2566 46.488C75.9526 46.824 75.8006 47.304 75.8006 47.928V51H74.5286ZM83.6227 51.144C83.1187 51.144 82.7027 51.06 82.3747 50.892C82.0467 50.724 81.8027 50.504 81.6427 50.232C81.4827 49.952 81.4027 49.648 81.4027 49.32C81.4027 48.744 81.6267 48.288 82.0747 47.952C82.5227 47.616 83.1627 47.448 83.9947 47.448H85.5547V47.34C85.5547 46.876 85.4267 46.528 85.1707 46.296C84.9227 46.064 84.5987 45.948 84.1987 45.948C83.8467 45.948 83.5387 46.036 83.2747 46.212C83.0187 46.38 82.8627 46.632 82.8067 46.968H81.5347C81.5747 46.536 81.7187 46.168 81.9667 45.864C82.2227 45.552 82.5427 45.316 82.9267 45.156C83.3187 44.988 83.7467 44.904 84.2107 44.904C85.0427 44.904 85.6867 45.124 86.1427 45.564C86.5987 45.996 86.8267 46.588 86.8267 47.34V51H85.7227L85.6147 49.98C85.4467 50.308 85.2027 50.584 84.8827 50.808C84.5627 51.032 84.1427 51.144 83.6227 51.144ZM83.8747 50.112C84.2187 50.112 84.5067 50.032 84.7387 49.872C84.9787 49.704 85.1627 49.484 85.2907 49.212C85.4267 48.94 85.5107 48.64 85.5427 48.312H84.1267C83.6227 48.312 83.2627 48.4 83.0467 48.576C82.8387 48.752 82.7347 48.972 82.7347 49.236C82.7347 49.508 82.8347 49.724 83.0347 49.884C83.2427 50.036 83.5227 50.112 83.8747 50.112ZM88.3099 51V42.36H89.5819V51H88.3099ZM25.0473 70V61.6H30.3873V62.632H26.3193V65.248H30.0273V66.256H26.3193V68.968H30.3873V70H25.0473ZM31.2788 70L33.3908 67.024L31.2788 64.048H32.6348L34.2308 66.328L35.8148 64.048H37.1828L35.0708 67.024L37.1828 70H35.8148L34.2308 67.72L32.6348 70H31.2788ZM38.2181 72.64V64.048H39.3581L39.4901 64.972C39.6821 64.692 39.9461 64.444 40.2821 64.228C40.6181 64.012 41.0501 63.904 41.5781 63.904C42.1541 63.904 42.6621 64.04 43.1021 64.312C43.5421 64.584 43.8861 64.956 44.1341 65.428C44.3901 65.9 44.5181 66.436 44.5181 67.036C44.5181 67.636 44.3901 68.172 44.1341 68.644C43.8861 69.108 43.5421 69.476 43.1021 69.748C42.6621 70.012 42.1501 70.144 41.5661 70.144C41.1021 70.144 40.6901 70.052 40.3301 69.868C39.9781 69.684 39.6981 69.424 39.4901 69.088V72.64H38.2181ZM41.3501 69.04C41.8941 69.04 42.3421 68.856 42.6941 68.488C43.0461 68.112 43.2221 67.624 43.2221 67.024C43.2221 66.632 43.1421 66.284 42.9821 65.98C42.8221 65.676 42.6021 65.44 42.3221 65.272C42.0421 65.096 41.7181 65.008 41.3501 65.008C40.8061 65.008 40.3581 65.196 40.0061 65.572C39.6621 65.948 39.4901 66.432 39.4901 67.024C39.4901 67.624 39.6621 68.112 40.0061 68.488C40.3581 68.856 40.8061 69.04 41.3501 69.04ZM48.6778 70.144C48.0938 70.144 47.5738 70.016 47.1178 69.76C46.6698 69.496 46.3178 69.132 46.0618 68.668C45.8058 68.204 45.6778 67.664 45.6778 67.048C45.6778 66.424 45.8018 65.876 46.0498 65.404C46.3058 64.932 46.6578 64.564 47.1058 64.3C47.5618 64.036 48.0898 63.904 48.6898 63.904C49.2738 63.904 49.7818 64.036 50.2138 64.3C50.6458 64.556 50.9818 64.9 51.2218 65.332C51.4618 65.764 51.5818 66.24 51.5818 66.76C51.5818 66.84 51.5778 66.928 51.5698 67.024C51.5698 67.112 51.5658 67.212 51.5578 67.324H46.9258C46.9658 67.9 47.1538 68.34 47.4898 68.644C47.8338 68.94 48.2298 69.088 48.6778 69.088C49.0378 69.088 49.3378 69.008 49.5778 68.848C49.8258 68.68 50.0098 68.456 50.1298 68.176H51.4018C51.2418 68.736 50.9218 69.204 50.4418 69.58C49.9698 69.956 49.3818 70.144 48.6778 70.144ZM48.6778 64.948C48.2538 64.948 47.8778 65.076 47.5498 65.332C47.2218 65.58 47.0218 65.956 46.9498 66.46H50.3098C50.2858 65.996 50.1218 65.628 49.8178 65.356C49.5138 65.084 49.1338 64.948 48.6778 64.948ZM52.9017 70V64.048H54.0417L54.1497 65.176C54.3577 64.784 54.6457 64.476 55.0137 64.252C55.3897 64.02 55.8417 63.904 56.3697 63.904V65.236H56.0217C55.6697 65.236 55.3537 65.296 55.0737 65.416C54.8017 65.528 54.5817 65.724 54.4137 66.004C54.2537 66.276 54.1737 66.656 54.1737 67.144V70H52.9017ZM58.1803 62.92C57.9403 62.92 57.7403 62.848 57.5803 62.704C57.4283 62.552 57.3523 62.364 57.3523 62.14C57.3523 61.916 57.4283 61.732 57.5803 61.588C57.7403 61.436 57.9403 61.36 58.1803 61.36C58.4203 61.36 58.6163 61.436 58.7683 61.588C58.9283 61.732 59.0083 61.916 59.0083 62.14C59.0083 62.364 58.9283 62.552 58.7683 62.704C58.6163 62.848 58.4203 62.92 58.1803 62.92ZM57.5443 70V64.048H58.8163V70H57.5443ZM63.2794 70.144C62.6954 70.144 62.1754 70.016 61.7194 69.76C61.2714 69.496 60.9194 69.132 60.6634 68.668C60.4074 68.204 60.2794 67.664 60.2794 67.048C60.2794 66.424 60.4034 65.876 60.6514 65.404C60.9074 64.932 61.2594 64.564 61.7074 64.3C62.1634 64.036 62.6914 63.904 63.2914 63.904C63.8754 63.904 64.3834 64.036 64.8154 64.3C65.2474 64.556 65.5834 64.9 65.8234 65.332C66.0634 65.764 66.1834 66.24 66.1834 66.76C66.1834 66.84 66.1794 66.928 66.1714 67.024C66.1714 67.112 66.1674 67.212 66.1594 67.324H61.5274C61.5674 67.9 61.7554 68.34 62.0914 68.644C62.4354 68.94 62.8314 69.088 63.2794 69.088C63.6394 69.088 63.9394 69.008 64.1794 68.848C64.4274 68.68 64.6114 68.456 64.7314 68.176H66.0034C65.8434 68.736 65.5234 69.204 65.0434 69.58C64.5714 69.956 63.9834 70.144 63.2794 70.144ZM63.2794 64.948C62.8554 64.948 62.4794 65.076 62.1514 65.332C61.8234 65.58 61.6234 65.956 61.5514 66.46H64.9114C64.8874 65.996 64.7234 65.628 64.4194 65.356C64.1154 65.084 63.7354 64.948 63.2794 64.948ZM67.5032 70V64.048H68.6312L68.7272 65.092C68.9112 64.724 69.1792 64.436 69.5312 64.228C69.8912 64.012 70.3032 63.904 70.7672 63.904C71.4872 63.904 72.0512 64.128 72.4592 64.576C72.8752 65.024 73.0832 65.692 73.0832 66.58V70H71.8232V66.712C71.8232 65.56 71.3512 64.984 70.4072 64.984C69.9352 64.984 69.5432 65.152 69.2312 65.488C68.9272 65.824 68.7752 66.304 68.7752 66.928V70H67.5032ZM77.4013 70.144C76.8173 70.144 76.2933 70.012 75.8293 69.748C75.3733 69.484 75.0133 69.12 74.7493 68.656C74.4933 68.184 74.3653 67.64 74.3653 67.024C74.3653 66.408 74.4933 65.868 74.7493 65.404C75.0133 64.932 75.3733 64.564 75.8293 64.3C76.2933 64.036 76.8173 63.904 77.4013 63.904C78.1373 63.904 78.7533 64.096 79.2493 64.48C79.7533 64.864 80.0773 65.384 80.2213 66.04H78.8893C78.8093 65.712 78.6333 65.456 78.3613 65.272C78.0893 65.088 77.7693 64.996 77.4013 64.996C77.0893 64.996 76.8013 65.076 76.5373 65.236C76.2733 65.388 76.0613 65.616 75.9013 65.92C75.7413 66.216 75.6613 66.584 75.6613 67.024C75.6613 67.464 75.7413 67.836 75.9013 68.14C76.0613 68.436 76.2733 68.664 76.5373 68.824C76.8013 68.984 77.0893 69.064 77.4013 69.064C77.7693 69.064 78.0893 68.972 78.3613 68.788C78.6333 68.604 78.8093 68.344 78.8893 68.008H80.2213C80.0853 68.648 79.7653 69.164 79.2613 69.556C78.7573 69.948 78.1373 70.144 77.4013 70.144ZM84.3849 70.144C83.8009 70.144 83.2809 70.016 82.8249 69.76C82.3769 69.496 82.0249 69.132 81.7689 68.668C81.5129 68.204 81.3849 67.664 81.3849 67.048C81.3849 66.424 81.5089 65.876 81.7569 65.404C82.0129 64.932 82.3649 64.564 82.8129 64.3C83.2689 64.036 83.7969 63.904 84.3969 63.904C84.9809 63.904 85.4889 64.036 85.9209 64.3C86.3529 64.556 86.6889 64.9 86.9289 65.332C87.1689 65.764 87.2889 66.24 87.2889 66.76C87.2889 66.84 87.2849 66.928 87.2769 67.024C87.2769 67.112 87.2729 67.212 87.2649 67.324H82.6329C82.6729 67.9 82.8609 68.34 83.1969 68.644C83.5409 68.94 83.9369 69.088 84.3849 69.088C84.7449 69.088 85.0449 69.008 85.2849 68.848C85.5329 68.68 85.7169 68.456 85.8369 68.176H87.1089C86.9489 68.736 86.6289 69.204 86.1489 69.58C85.6769 69.956 85.0889 70.144 84.3849 70.144ZM84.3849 64.948C83.9609 64.948 83.5849 65.076 83.2569 65.332C82.9289 65.58 82.7289 65.956 82.6569 66.46H86.0169C85.9929 65.996 85.8289 65.628 85.5249 65.356C85.2209 65.084 84.8409 64.948 84.3849 64.948Z" fill="white"/>
</svg>
