<svg width="112" height="112" viewBox="0 0 112 112" fill="none" xmlns="http://www.w3.org/2000/svg">
<circle cx="56" cy="56" r="56" fill="white" fill-opacity="0.1"/>
<circle cx="56" cy="56" r="55.5" stroke="white" stroke-opacity="0.28"/>
<path d="M32.6821 51V42.6H35.6221C36.2781 42.6 36.8221 42.712 37.2541 42.936C37.6861 43.152 38.0061 43.452 38.2141 43.836C38.4301 44.212 38.5381 44.64 38.5381 45.12C38.5381 45.576 38.4341 45.996 38.2261 46.38C38.0261 46.756 37.7101 47.056 37.2781 47.28C36.8461 47.504 36.2941 47.616 35.6221 47.616H33.9541V51H32.6821ZM33.9541 46.572H35.5621C36.1621 46.572 36.5901 46.444 36.8461 46.188C37.1101 45.924 37.2421 45.568 37.2421 45.12C37.2421 44.656 37.1101 44.296 36.8461 44.04C36.5901 43.776 36.1621 43.644 35.5621 43.644H33.9541V46.572ZM42.2032 51.144C41.6192 51.144 41.0992 51.016 40.6432 50.76C40.1952 50.496 39.8432 50.132 39.5872 49.668C39.3312 49.204 39.2032 48.664 39.2032 48.048C39.2032 47.424 39.3272 46.876 39.5752 46.404C39.8312 45.932 40.1832 45.564 40.6312 45.3C41.0872 45.036 41.6152 44.904 42.2152 44.904C42.7992 44.904 43.3072 45.036 43.7392 45.3C44.1712 45.556 44.5072 45.9 44.7472 46.332C44.9872 46.764 45.1072 47.24 45.1072 47.76C45.1072 47.84 45.1032 47.928 45.0952 48.024C45.0952 48.112 45.0912 48.212 45.0832 48.324H40.4512C40.4912 48.9 40.6792 49.34 41.0152 49.644C41.3592 49.94 41.7552 50.088 42.2032 50.088C42.5632 50.088 42.8632 50.008 43.1032 49.848C43.3512 49.68 43.5352 49.456 43.6552 49.176H44.9272C44.7672 49.736 44.4472 50.204 43.9672 50.58C43.4952 50.956 42.9072 51.144 42.2032 51.144ZM42.2032 45.948C41.7792 45.948 41.4032 46.076 41.0752 46.332C40.7472 46.58 40.5472 46.956 40.4752 47.46H43.8352C43.8112 46.996 43.6472 46.628 43.3432 46.356C43.0392 46.084 42.6592 45.948 42.2032 45.948ZM46.427 51V45.048H47.567L47.675 46.176C47.883 45.784 48.171 45.476 48.539 45.252C48.915 45.02 49.367 44.904 49.895 44.904V46.236H49.547C49.195 46.236 48.879 46.296 48.599 46.416C48.327 46.528 48.107 46.724 47.939 47.004C47.779 47.276 47.699 47.656 47.699 48.144V51H46.427ZM53.3616 51.144C52.6096 51.144 51.9896 50.96 51.5016 50.592C51.0136 50.224 50.7336 49.736 50.6616 49.128H51.9456C52.0096 49.4 52.1616 49.636 52.4016 49.836C52.6416 50.028 52.9576 50.124 53.3496 50.124C53.7336 50.124 54.0136 50.044 54.1896 49.884C54.3656 49.724 54.4536 49.54 54.4536 49.332C54.4536 49.028 54.3296 48.824 54.0816 48.72C53.8416 48.608 53.5056 48.508 53.0736 48.42C52.7376 48.348 52.4016 48.252 52.0656 48.132C51.7376 48.012 51.4616 47.844 51.2376 47.628C51.0216 47.404 50.9136 47.104 50.9136 46.728C50.9136 46.208 51.1136 45.776 51.5136 45.432C51.9136 45.08 52.4736 44.904 53.1936 44.904C53.8576 44.904 54.3936 45.064 54.8016 45.384C55.2176 45.704 55.4616 46.156 55.5336 46.74H54.3096C54.2696 46.484 54.1496 46.284 53.9496 46.14C53.7576 45.996 53.4976 45.924 53.1696 45.924C52.8496 45.924 52.6016 45.992 52.4256 46.128C52.2496 46.256 52.1616 46.424 52.1616 46.632C52.1616 46.84 52.2816 47.004 52.5216 47.124C52.7696 47.244 53.0936 47.352 53.4936 47.448C53.8936 47.536 54.2616 47.64 54.5976 47.76C54.9416 47.872 55.2176 48.04 55.4256 48.264C55.6336 48.488 55.7376 48.816 55.7376 49.248C55.7456 49.792 55.5336 50.244 55.1016 50.604C54.6776 50.964 54.0976 51.144 53.3616 51.144ZM59.9103 51.144C59.3423 51.144 58.8303 51.016 58.3743 50.76C57.9263 50.496 57.5703 50.132 57.3063 49.668C57.0423 49.196 56.9103 48.648 56.9103 48.024C56.9103 47.4 57.0423 46.856 57.3063 46.392C57.5783 45.92 57.9423 45.556 58.3983 45.3C58.8543 45.036 59.3623 44.904 59.9223 44.904C60.4903 44.904 60.9983 45.036 61.4463 45.3C61.9023 45.556 62.2623 45.92 62.5263 46.392C62.7983 46.856 62.9343 47.4 62.9343 48.024C62.9343 48.648 62.7983 49.196 62.5263 49.668C62.2623 50.132 61.9023 50.496 61.4463 50.76C60.9903 51.016 60.4783 51.144 59.9103 51.144ZM59.9103 50.052C60.2143 50.052 60.4943 49.976 60.7503 49.824C61.0143 49.672 61.2263 49.448 61.3863 49.152C61.5463 48.848 61.6263 48.472 61.6263 48.024C61.6263 47.576 61.5463 47.204 61.3863 46.908C61.2343 46.604 61.0263 46.376 60.7623 46.224C60.5063 46.072 60.2263 45.996 59.9223 45.996C59.6183 45.996 59.3343 46.072 59.0703 46.224C58.8143 46.376 58.6063 46.604 58.4463 46.908C58.2863 47.204 58.2063 47.576 58.2063 48.024C58.2063 48.472 58.2863 48.848 58.4463 49.152C58.6063 49.448 58.8143 49.672 59.0703 49.824C59.3263 49.976 59.6063 50.052 59.9103 50.052ZM64.3099 51V45.048H65.4379L65.5339 46.092C65.7179 45.724 65.9859 45.436 66.3379 45.228C66.6979 45.012 67.1099 44.904 67.5739 44.904C68.2939 44.904 68.8579 45.128 69.2659 45.576C69.6819 46.024 69.8899 46.692 69.8899 47.58V51H68.6299V47.712C68.6299 46.56 68.1579 45.984 67.2139 45.984C66.7419 45.984 66.3499 46.152 66.0379 46.488C65.7339 46.824 65.5819 47.304 65.5819 47.928V51H64.3099ZM73.404 51.144C72.9 51.144 72.484 51.06 72.156 50.892C71.828 50.724 71.584 50.504 71.424 50.232C71.264 49.952 71.184 49.648 71.184 49.32C71.184 48.744 71.408 48.288 71.856 47.952C72.304 47.616 72.944 47.448 73.776 47.448H75.336V47.34C75.336 46.876 75.208 46.528 74.952 46.296C74.704 46.064 74.38 45.948 73.98 45.948C73.628 45.948 73.32 46.036 73.056 46.212C72.8 46.38 72.644 46.632 72.588 46.968H71.316C71.356 46.536 71.5 46.168 71.748 45.864C72.004 45.552 72.324 45.316 72.708 45.156C73.1 44.988 73.528 44.904 73.992 44.904C74.824 44.904 75.468 45.124 75.924 45.564C76.38 45.996 76.608 46.588 76.608 47.34V51H75.504L75.396 49.98C75.228 50.308 74.984 50.584 74.664 50.808C74.344 51.032 73.924 51.144 73.404 51.144ZM73.656 50.112C74 50.112 74.288 50.032 74.52 49.872C74.76 49.704 74.944 49.484 75.072 49.212C75.208 48.94 75.292 48.64 75.324 48.312H73.908C73.404 48.312 73.044 48.4 72.828 48.576C72.62 48.752 72.516 48.972 72.516 49.236C72.516 49.508 72.616 49.724 72.816 49.884C73.024 50.036 73.304 50.112 73.656 50.112ZM78.0911 51V42.36H79.3631V51H78.0911ZM31.8149 70V61.6H33.0869V70H31.8149ZM34.7435 70V64.048H35.8715L35.9675 65.092C36.1515 64.724 36.4195 64.436 36.7715 64.228C37.1315 64.012 37.5435 63.904 38.0075 63.904C38.7275 63.904 39.2915 64.128 39.6995 64.576C40.1155 65.024 40.3235 65.692 40.3235 66.58V70H39.0635V66.712C39.0635 65.56 38.5915 64.984 37.6475 64.984C37.1755 64.984 36.7835 65.152 36.4715 65.488C36.1675 65.824 36.0155 66.304 36.0155 66.928V70H34.7435ZM44.3176 70C43.7336 70 43.2696 69.86 42.9256 69.58C42.5816 69.292 42.4096 68.784 42.4096 68.056V65.116H41.3896V64.048H42.4096L42.5656 62.536H43.6816V64.048H45.3616V65.116H43.6816V68.056C43.6816 68.384 43.7496 68.612 43.8856 68.74C44.0296 68.86 44.2736 68.92 44.6176 68.92H45.3016V70H44.3176ZM49.3048 70.144C48.7208 70.144 48.2008 70.016 47.7448 69.76C47.2968 69.496 46.9448 69.132 46.6888 68.668C46.4328 68.204 46.3048 67.664 46.3048 67.048C46.3048 66.424 46.4288 65.876 46.6768 65.404C46.9328 64.932 47.2848 64.564 47.7328 64.3C48.1888 64.036 48.7168 63.904 49.3168 63.904C49.9008 63.904 50.4088 64.036 50.8408 64.3C51.2728 64.556 51.6088 64.9 51.8488 65.332C52.0888 65.764 52.2088 66.24 52.2088 66.76C52.2088 66.84 52.2048 66.928 52.1968 67.024C52.1968 67.112 52.1928 67.212 52.1848 67.324H47.5528C47.5928 67.9 47.7808 68.34 48.1168 68.644C48.4608 68.94 48.8568 69.088 49.3048 69.088C49.6648 69.088 49.9648 69.008 50.2048 68.848C50.4528 68.68 50.6368 68.456 50.7568 68.176H52.0288C51.8688 68.736 51.5488 69.204 51.0688 69.58C50.5968 69.956 50.0088 70.144 49.3048 70.144ZM49.3048 64.948C48.8808 64.948 48.5048 65.076 48.1768 65.332C47.8488 65.58 47.6488 65.956 47.5768 66.46H50.9368C50.9128 65.996 50.7488 65.628 50.4448 65.356C50.1408 65.084 49.7608 64.948 49.3048 64.948ZM53.5286 70V64.048H54.6686L54.7766 65.176C54.9846 64.784 55.2726 64.476 55.6406 64.252C56.0166 64.02 56.4686 63.904 56.9966 63.904V65.236H56.6486C56.2966 65.236 55.9806 65.296 55.7006 65.416C55.4286 65.528 55.2086 65.724 55.0406 66.004C54.8806 66.276 54.8006 66.656 54.8006 67.144V70H53.5286ZM60.7071 70.144C60.1231 70.144 59.6031 70.016 59.1471 69.76C58.6991 69.496 58.3471 69.132 58.0911 68.668C57.8351 68.204 57.7071 67.664 57.7071 67.048C57.7071 66.424 57.8311 65.876 58.0791 65.404C58.3351 64.932 58.6871 64.564 59.1351 64.3C59.5911 64.036 60.1191 63.904 60.7191 63.904C61.3031 63.904 61.8111 64.036 62.2431 64.3C62.6751 64.556 63.0111 64.9 63.2511 65.332C63.4911 65.764 63.6111 66.24 63.6111 66.76C63.6111 66.84 63.6071 66.928 63.5991 67.024C63.5991 67.112 63.5951 67.212 63.5871 67.324H58.9551C58.9951 67.9 59.1831 68.34 59.5191 68.644C59.8631 68.94 60.2591 69.088 60.7071 69.088C61.0671 69.088 61.3671 69.008 61.6071 68.848C61.8551 68.68 62.0391 68.456 62.1591 68.176H63.4311C63.2711 68.736 62.9511 69.204 62.4711 69.58C61.9991 69.956 61.4111 70.144 60.7071 70.144ZM60.7071 64.948C60.2831 64.948 59.9071 65.076 59.5791 65.332C59.2511 65.58 59.0511 65.956 58.9791 66.46H62.3391C62.3151 65.996 62.1511 65.628 61.8471 65.356C61.5431 65.084 61.1631 64.948 60.7071 64.948ZM67.307 70.144C66.555 70.144 65.935 69.96 65.447 69.592C64.959 69.224 64.679 68.736 64.607 68.128H65.891C65.955 68.4 66.107 68.636 66.347 68.836C66.587 69.028 66.903 69.124 67.295 69.124C67.679 69.124 67.959 69.044 68.135 68.884C68.311 68.724 68.399 68.54 68.399 68.332C68.399 68.028 68.275 67.824 68.027 67.72C67.787 67.608 67.451 67.508 67.019 67.42C66.683 67.348 66.347 67.252 66.011 67.132C65.683 67.012 65.407 66.844 65.183 66.628C64.967 66.404 64.859 66.104 64.859 65.728C64.859 65.208 65.059 64.776 65.459 64.432C65.859 64.08 66.419 63.904 67.139 63.904C67.803 63.904 68.339 64.064 68.747 64.384C69.163 64.704 69.407 65.156 69.479 65.74H68.255C68.215 65.484 68.095 65.284 67.895 65.14C67.703 64.996 67.443 64.924 67.115 64.924C66.795 64.924 66.547 64.992 66.371 65.128C66.195 65.256 66.107 65.424 66.107 65.632C66.107 65.84 66.227 66.004 66.467 66.124C66.715 66.244 67.039 66.352 67.439 66.448C67.839 66.536 68.207 66.64 68.543 66.76C68.887 66.872 69.163 67.04 69.371 67.264C69.579 67.488 69.683 67.816 69.683 68.248C69.691 68.792 69.479 69.244 69.047 69.604C68.623 69.964 68.043 70.144 67.307 70.144ZM73.3449 70C72.7609 70 72.2969 69.86 71.9529 69.58C71.6089 69.292 71.4369 68.784 71.4369 68.056V65.116H70.4169V64.048H71.4369L71.5929 62.536H72.7089V64.048H74.3889V65.116H72.7089V68.056C72.7089 68.384 72.7769 68.612 72.9129 68.74C73.0569 68.86 73.3009 68.92 73.6449 68.92H74.3289V70H73.3449ZM78.0765 70.144C77.3245 70.144 76.7045 69.96 76.2165 69.592C75.7285 69.224 75.4485 68.736 75.3765 68.128H76.6605C76.7245 68.4 76.8765 68.636 77.1165 68.836C77.3565 69.028 77.6725 69.124 78.0645 69.124C78.4485 69.124 78.7285 69.044 78.9045 68.884C79.0805 68.724 79.1685 68.54 79.1685 68.332C79.1685 68.028 79.0445 67.824 78.7965 67.72C78.5565 67.608 78.2205 67.508 77.7885 67.42C77.4525 67.348 77.1165 67.252 76.7805 67.132C76.4525 67.012 76.1765 66.844 75.9525 66.628C75.7365 66.404 75.6285 66.104 75.6285 65.728C75.6285 65.208 75.8285 64.776 76.2285 64.432C76.6285 64.08 77.1885 63.904 77.9085 63.904C78.5725 63.904 79.1085 64.064 79.5165 64.384C79.9325 64.704 80.1765 65.156 80.2485 65.74H79.0245C78.9845 65.484 78.8645 65.284 78.6645 65.14C78.4725 64.996 78.2125 64.924 77.8845 64.924C77.5645 64.924 77.3165 64.992 77.1405 65.128C76.9645 65.256 76.8765 65.424 76.8765 65.632C76.8765 65.84 76.9965 66.004 77.2365 66.124C77.4845 66.244 77.8085 66.352 78.2085 66.448C78.6085 66.536 78.9765 66.64 79.3125 66.76C79.6565 66.872 79.9325 67.04 80.1405 67.264C80.3485 67.488 80.4525 67.816 80.4525 68.248C80.4605 68.792 80.2485 69.244 79.8165 69.604C79.3925 69.964 78.8125 70.144 78.0765 70.144Z" fill="white"/>
</svg>
