<svg width="285" height="199" viewBox="0 0 285 199" fill="none" xmlns="http://www.w3.org/2000/svg">
<g filter="url(#filter0_d_8_65)">
<path d="M245 32C245 25.3726 239.627 20 233 20H32C25.3726 20 20 25.3726 20 32V134C20 140.627 25.3726 146 32 146H233C239.627 146 245 140.627 245 134V32Z" fill="#4E5FFF"/>
<path d="M130.862 125.115C128.484 125.115 127.295 125.115 126.73 125.607C126.281 125.998 126.03 126.569 126.045 127.165C126.063 127.914 126.866 128.79 128.473 130.544L152.315 156.569C153.254 157.594 153.724 158.107 154.266 158.262C154.702 158.387 155.168 158.361 155.587 158.186C156.107 157.969 156.515 157.406 157.329 156.28L176.155 130.254C177.38 128.56 177.992 127.713 177.954 127.005C177.923 126.441 177.655 125.917 177.216 125.561C176.665 125.115 175.62 125.115 173.529 125.115L130.862 125.115Z" fill="#4E5FFF"/>
</g>
<defs>
<filter id="filter0_d_8_65" x="0" y="0" width="285" height="198.34" filterUnits="userSpaceOnUse" color-interpolation-filters="sRGB">
<feFlood flood-opacity="0" result="BackgroundImageFix"/>
<feColorMatrix in="SourceAlpha" type="matrix" values="0 0 0 0 0 0 0 0 0 0 0 0 0 0 0 0 0 0 127 0" result="hardAlpha"/>
<feOffset dx="10" dy="10"/>
<feGaussianBlur stdDeviation="15"/>
<feComposite in2="hardAlpha" operator="out"/>
<feColorMatrix type="matrix" values="0 0 0 0 0 0 0 0 0 0 0 0 0 0 0 0 0 0 0.1 0"/>
<feBlend mode="normal" in2="BackgroundImageFix" result="effect1_dropShadow_8_65"/>
<feBlend mode="normal" in="SourceGraphic" in2="effect1_dropShadow_8_65" result="shape"/>
</filter>
</defs>
</svg>
