<svg width="112" height="112" viewBox="0 0 112 112" fill="none" xmlns="http://www.w3.org/2000/svg">
<g filter="url(#filter0_b_12_613)">
<circle cx="56" cy="56" r="56" fill="white" fill-opacity="0.1"/>
<circle cx="56" cy="56" r="55.5" stroke="white" stroke-opacity="0.28"/>
<path d="M23.3774 51V42.6H28.7174V43.632H24.6494V46.248H28.3574V47.256H24.6494V49.968H28.7174V51H23.3774ZM32.8969 51.144C32.3209 51.144 31.8129 51.008 31.3729 50.736C30.9329 50.464 30.5889 50.092 30.3409 49.62C30.0929 49.148 29.9689 48.612 29.9689 48.012C29.9689 47.412 30.0929 46.88 30.3409 46.416C30.5889 45.944 30.9329 45.576 31.3729 45.312C31.8209 45.04 32.3329 44.904 32.9089 44.904C33.3809 44.904 33.7929 44.996 34.1449 45.18C34.5049 45.364 34.7849 45.624 34.9849 45.96V42.36H36.2569V51H35.1169L34.9849 50.076C34.7929 50.356 34.5289 50.604 34.1929 50.82C33.8569 51.036 33.4249 51.144 32.8969 51.144ZM33.1249 50.04C33.6689 50.04 34.1129 49.852 34.4569 49.476C34.8089 49.1 34.9849 48.616 34.9849 48.024C34.9849 47.424 34.8089 46.94 34.4569 46.572C34.1129 46.196 33.6689 46.008 33.1249 46.008C32.5809 46.008 32.1329 46.196 31.7809 46.572C31.4289 46.94 31.2529 47.424 31.2529 48.024C31.2529 48.416 31.3329 48.764 31.4929 49.068C31.6529 49.372 31.8729 49.612 32.1529 49.788C32.4409 49.956 32.7649 50.04 33.1249 50.04ZM40.0566 51.144C39.3366 51.144 38.7686 50.92 38.3526 50.472C37.9446 50.024 37.7406 49.356 37.7406 48.468V45.048H39.0126V48.336C39.0126 49.488 39.4846 50.064 40.4286 50.064C40.9006 50.064 41.2886 49.896 41.5926 49.56C41.8966 49.224 42.0486 48.744 42.0486 48.12V45.048H43.3206V51H42.1926L42.0966 49.956C41.9126 50.324 41.6406 50.616 41.2806 50.832C40.9286 51.04 40.5206 51.144 40.0566 51.144ZM47.7588 51.144C47.1748 51.144 46.6508 51.012 46.1868 50.748C45.7308 50.484 45.3708 50.12 45.1068 49.656C44.8508 49.184 44.7228 48.64 44.7228 48.024C44.7228 47.408 44.8508 46.868 45.1068 46.404C45.3708 45.932 45.7308 45.564 46.1868 45.3C46.6508 45.036 47.1748 44.904 47.7588 44.904C48.4948 44.904 49.1108 45.096 49.6068 45.48C50.1108 45.864 50.4348 46.384 50.5788 47.04H49.2468C49.1668 46.712 48.9908 46.456 48.7188 46.272C48.4468 46.088 48.1268 45.996 47.7588 45.996C47.4468 45.996 47.1588 46.076 46.8948 46.236C46.6308 46.388 46.4188 46.616 46.2588 46.92C46.0988 47.216 46.0188 47.584 46.0188 48.024C46.0188 48.464 46.0988 48.836 46.2588 49.14C46.4188 49.436 46.6308 49.664 46.8948 49.824C47.1588 49.984 47.4468 50.064 47.7588 50.064C48.1268 50.064 48.4468 49.972 48.7188 49.788C48.9908 49.604 49.1668 49.344 49.2468 49.008H50.5788C50.4428 49.648 50.1228 50.164 49.6188 50.556C49.1148 50.948 48.4948 51.144 47.7588 51.144ZM53.9743 51.144C53.4703 51.144 53.0543 51.06 52.7263 50.892C52.3983 50.724 52.1543 50.504 51.9943 50.232C51.8343 49.952 51.7543 49.648 51.7543 49.32C51.7543 48.744 51.9783 48.288 52.4263 47.952C52.8743 47.616 53.5143 47.448 54.3463 47.448H55.9063V47.34C55.9063 46.876 55.7783 46.528 55.5223 46.296C55.2743 46.064 54.9503 45.948 54.5503 45.948C54.1983 45.948 53.8903 46.036 53.6263 46.212C53.3703 46.38 53.2143 46.632 53.1583 46.968H51.8863C51.9263 46.536 52.0703 46.168 52.3183 45.864C52.5743 45.552 52.8943 45.316 53.2783 45.156C53.6703 44.988 54.0983 44.904 54.5623 44.904C55.3943 44.904 56.0383 45.124 56.4943 45.564C56.9503 45.996 57.1783 46.588 57.1783 47.34V51H56.0743L55.9663 49.98C55.7983 50.308 55.5543 50.584 55.2343 50.808C54.9143 51.032 54.4943 51.144 53.9743 51.144ZM54.2263 50.112C54.5703 50.112 54.8583 50.032 55.0903 49.872C55.3303 49.704 55.5143 49.484 55.6423 49.212C55.7783 48.94 55.8623 48.64 55.8943 48.312H54.4783C53.9743 48.312 53.6143 48.4 53.3983 48.576C53.1903 48.752 53.0863 48.972 53.0863 49.236C53.0863 49.508 53.1863 49.724 53.3863 49.884C53.5943 50.036 53.8743 50.112 54.2263 50.112ZM61.0402 51C60.4562 51 59.9922 50.86 59.6482 50.58C59.3042 50.292 59.1322 49.784 59.1322 49.056V46.116H58.1122V45.048H59.1322L59.2882 43.536H60.4042V45.048H62.0842V46.116H60.4042V49.056C60.4042 49.384 60.4722 49.612 60.6082 49.74C60.7522 49.86 60.9962 49.92 61.3402 49.92H62.0242V51H61.0402ZM64.1158 43.92C63.8758 43.92 63.6758 43.848 63.5158 43.704C63.3638 43.552 63.2878 43.364 63.2878 43.14C63.2878 42.916 63.3638 42.732 63.5158 42.588C63.6758 42.436 63.8758 42.36 64.1158 42.36C64.3558 42.36 64.5518 42.436 64.7038 42.588C64.8638 42.732 64.9438 42.916 64.9438 43.14C64.9438 43.364 64.8638 43.552 64.7038 43.704C64.5518 43.848 64.3558 43.92 64.1158 43.92ZM63.4798 51V45.048H64.7518V51H63.4798ZM69.215 51.144C68.647 51.144 68.135 51.016 67.679 50.76C67.231 50.496 66.875 50.132 66.611 49.668C66.347 49.196 66.215 48.648 66.215 48.024C66.215 47.4 66.347 46.856 66.611 46.392C66.883 45.92 67.247 45.556 67.703 45.3C68.159 45.036 68.667 44.904 69.227 44.904C69.795 44.904 70.303 45.036 70.751 45.3C71.207 45.556 71.567 45.92 71.831 46.392C72.103 46.856 72.239 47.4 72.239 48.024C72.239 48.648 72.103 49.196 71.831 49.668C71.567 50.132 71.207 50.496 70.751 50.76C70.295 51.016 69.783 51.144 69.215 51.144ZM69.215 50.052C69.519 50.052 69.799 49.976 70.055 49.824C70.319 49.672 70.531 49.448 70.691 49.152C70.851 48.848 70.931 48.472 70.931 48.024C70.931 47.576 70.851 47.204 70.691 46.908C70.539 46.604 70.331 46.376 70.067 46.224C69.811 46.072 69.531 45.996 69.227 45.996C68.923 45.996 68.639 46.072 68.375 46.224C68.119 46.376 67.911 46.604 67.751 46.908C67.591 47.204 67.511 47.576 67.511 48.024C67.511 48.472 67.591 48.848 67.751 49.152C67.911 49.448 68.119 49.672 68.375 49.824C68.631 49.976 68.911 50.052 69.215 50.052ZM73.6145 51V45.048H74.7425L74.8385 46.092C75.0225 45.724 75.2905 45.436 75.6425 45.228C76.0025 45.012 76.4145 44.904 76.8785 44.904C77.5985 44.904 78.1625 45.128 78.5705 45.576C78.9865 46.024 79.1945 46.692 79.1945 47.58V51H77.9345V47.712C77.9345 46.56 77.4625 45.984 76.5185 45.984C76.0465 45.984 75.6545 46.152 75.3425 46.488C75.0385 46.824 74.8865 47.304 74.8865 47.928V51H73.6145ZM82.7087 51.144C82.2047 51.144 81.7887 51.06 81.4607 50.892C81.1327 50.724 80.8887 50.504 80.7287 50.232C80.5687 49.952 80.4887 49.648 80.4887 49.32C80.4887 48.744 80.7127 48.288 81.1607 47.952C81.6087 47.616 82.2487 47.448 83.0807 47.448H84.6407V47.34C84.6407 46.876 84.5127 46.528 84.2567 46.296C84.0087 46.064 83.6847 45.948 83.2847 45.948C82.9327 45.948 82.6247 46.036 82.3607 46.212C82.1047 46.38 81.9487 46.632 81.8927 46.968H80.6207C80.6607 46.536 80.8047 46.168 81.0527 45.864C81.3087 45.552 81.6287 45.316 82.0127 45.156C82.4047 44.988 82.8327 44.904 83.2967 44.904C84.1287 44.904 84.7727 45.124 85.2287 45.564C85.6847 45.996 85.9127 46.588 85.9127 47.34V51H84.8087L84.7007 49.98C84.5327 50.308 84.2887 50.584 83.9687 50.808C83.6487 51.032 83.2287 51.144 82.7087 51.144ZM82.9607 50.112C83.3047 50.112 83.5927 50.032 83.8247 49.872C84.0647 49.704 84.2487 49.484 84.3767 49.212C84.5127 48.94 84.5967 48.64 84.6287 48.312H83.2127C82.7087 48.312 82.3487 48.4 82.1327 48.576C81.9247 48.752 81.8207 48.972 81.8207 49.236C81.8207 49.508 81.9207 49.724 82.1207 49.884C82.3287 50.036 82.6087 50.112 82.9607 50.112ZM87.3958 51V42.36H88.6678V51H87.3958ZM23.0024 70V61.6H26.1704C27.0424 61.6 27.7024 61.804 28.1504 62.212C28.5984 62.62 28.8224 63.132 28.8224 63.748C28.8224 64.284 28.6784 64.712 28.3904 65.032C28.1024 65.344 27.7544 65.556 27.3464 65.668C27.6664 65.732 27.9504 65.86 28.1984 66.052C28.4544 66.244 28.6544 66.484 28.7984 66.772C28.9424 67.06 29.0144 67.372 29.0144 67.708C29.0144 68.14 28.9064 68.532 28.6904 68.884C28.4824 69.228 28.1744 69.5 27.7664 69.7C27.3584 69.9 26.8584 70 26.2664 70H23.0024ZM24.2744 65.2H26.0144C26.5024 65.2 26.8744 65.088 27.1304 64.864C27.3864 64.632 27.5144 64.316 27.5144 63.916C27.5144 63.524 27.3864 63.212 27.1304 62.98C26.8824 62.748 26.5024 62.632 25.9904 62.632H24.2744V65.2ZM24.2744 68.956H26.0984C26.6104 68.956 27.0064 68.836 27.2864 68.596C27.5744 68.356 27.7184 68.02 27.7184 67.588C27.7184 67.156 27.5704 66.816 27.2744 66.568C26.9784 66.312 26.5784 66.184 26.0744 66.184H24.2744V68.956ZM32.3766 70.144C31.8726 70.144 31.4566 70.06 31.1286 69.892C30.8006 69.724 30.5566 69.504 30.3966 69.232C30.2366 68.952 30.1566 68.648 30.1566 68.32C30.1566 67.744 30.3806 67.288 30.8286 66.952C31.2766 66.616 31.9166 66.448 32.7486 66.448H34.3086V66.34C34.3086 65.876 34.1806 65.528 33.9246 65.296C33.6766 65.064 33.3526 64.948 32.9526 64.948C32.6006 64.948 32.2926 65.036 32.0286 65.212C31.7726 65.38 31.6166 65.632 31.5606 65.968H30.2886C30.3286 65.536 30.4726 65.168 30.7206 64.864C30.9766 64.552 31.2966 64.316 31.6806 64.156C32.0726 63.988 32.5006 63.904 32.9646 63.904C33.7966 63.904 34.4406 64.124 34.8966 64.564C35.3526 64.996 35.5806 65.588 35.5806 66.34V70H34.4766L34.3686 68.98C34.2006 69.308 33.9566 69.584 33.6366 69.808C33.3166 70.032 32.8966 70.144 32.3766 70.144ZM32.6286 69.112C32.9726 69.112 33.2606 69.032 33.4926 68.872C33.7326 68.704 33.9166 68.484 34.0446 68.212C34.1806 67.94 34.2646 67.64 34.2966 67.312H32.8806C32.3766 67.312 32.0166 67.4 31.8006 67.576C31.5926 67.752 31.4886 67.972 31.4886 68.236C31.4886 68.508 31.5886 68.724 31.7886 68.884C31.9966 69.036 32.2766 69.112 32.6286 69.112ZM39.8838 70.144C39.2998 70.144 38.7758 70.012 38.3118 69.748C37.8558 69.484 37.4958 69.12 37.2318 68.656C36.9758 68.184 36.8478 67.64 36.8478 67.024C36.8478 66.408 36.9758 65.868 37.2318 65.404C37.4958 64.932 37.8558 64.564 38.3118 64.3C38.7758 64.036 39.2998 63.904 39.8838 63.904C40.6198 63.904 41.2358 64.096 41.7318 64.48C42.2358 64.864 42.5598 65.384 42.7038 66.04H41.3718C41.2918 65.712 41.1158 65.456 40.8438 65.272C40.5718 65.088 40.2518 64.996 39.8838 64.996C39.5718 64.996 39.2838 65.076 39.0198 65.236C38.7558 65.388 38.5438 65.616 38.3838 65.92C38.2238 66.216 38.1438 66.584 38.1438 67.024C38.1438 67.464 38.2238 67.836 38.3838 68.14C38.5438 68.436 38.7558 68.664 39.0198 68.824C39.2838 68.984 39.5718 69.064 39.8838 69.064C40.2518 69.064 40.5718 68.972 40.8438 68.788C41.1158 68.604 41.2918 68.344 41.3718 68.008H42.7038C42.5678 68.648 42.2478 69.164 41.7438 69.556C41.2398 69.948 40.6198 70.144 39.8838 70.144ZM44.0833 70V61.36H45.3553V66.508L47.6353 64.048H49.1593L46.6273 66.748L49.5313 70H47.9233L45.3553 66.952V70H44.0833ZM52.9529 68.176C52.6409 68.176 52.3529 68.14 52.0889 68.068L51.5729 68.572C51.6609 68.628 51.7689 68.676 51.8969 68.716C52.0249 68.756 52.2049 68.792 52.4369 68.824C52.6689 68.856 52.9849 68.888 53.3849 68.92C54.1769 68.992 54.7489 69.184 55.1009 69.496C55.4529 69.8 55.6289 70.208 55.6289 70.72C55.6289 71.072 55.5329 71.404 55.3409 71.716C55.1569 72.036 54.8649 72.292 54.4649 72.484C54.0729 72.684 53.5689 72.784 52.9529 72.784C52.1209 72.784 51.4449 72.624 50.9249 72.304C50.4129 71.992 50.1569 71.516 50.1569 70.876C50.1569 70.628 50.2209 70.38 50.3489 70.132C50.4849 69.892 50.6969 69.664 50.9849 69.448C50.8169 69.376 50.6689 69.3 50.5409 69.22C50.4209 69.132 50.3129 69.044 50.2169 68.956V68.668L51.2489 67.612C50.7849 67.212 50.5529 66.688 50.5529 66.04C50.5529 65.648 50.6449 65.292 50.8289 64.972C51.0209 64.644 51.2969 64.384 51.6569 64.192C52.0169 64 52.4489 63.904 52.9529 63.904C53.2889 63.904 53.6009 63.952 53.8889 64.048H56.1089V64.888L55.0529 64.948C55.2449 65.276 55.3409 65.64 55.3409 66.04C55.3409 66.44 55.2449 66.8 55.0529 67.12C54.8689 67.44 54.5969 67.696 54.2369 67.888C53.8849 68.08 53.4569 68.176 52.9529 68.176ZM52.9529 67.18C53.3209 67.18 53.6169 67.084 53.8409 66.892C54.0729 66.692 54.1889 66.412 54.1889 66.052C54.1889 65.684 54.0729 65.404 53.8409 65.212C53.6169 65.02 53.3209 64.924 52.9529 64.924C52.5769 64.924 52.2729 65.02 52.0409 65.212C51.8169 65.404 51.7049 65.684 51.7049 66.052C51.7049 66.412 51.8169 66.692 52.0409 66.892C52.2729 67.084 52.5769 67.18 52.9529 67.18ZM51.3569 70.756C51.3569 71.1 51.5089 71.356 51.8129 71.524C52.1169 71.7 52.4969 71.788 52.9529 71.788C53.3929 71.788 53.7489 71.692 54.0209 71.5C54.2929 71.316 54.4289 71.068 54.4289 70.756C54.4289 70.524 54.3369 70.324 54.1529 70.156C53.9689 69.996 53.6209 69.896 53.1089 69.856C52.7249 69.832 52.3849 69.796 52.0889 69.748C51.8089 69.9 51.6169 70.064 51.5129 70.24C51.4089 70.416 51.3569 70.588 51.3569 70.756ZM57.2435 70V64.048H58.3835L58.4915 65.176C58.6995 64.784 58.9875 64.476 59.3555 64.252C59.7315 64.02 60.1835 63.904 60.7115 63.904V65.236H60.3635C60.0115 65.236 59.6955 65.296 59.4155 65.416C59.1435 65.528 58.9235 65.724 58.7555 66.004C58.5955 66.276 58.5155 66.656 58.5155 67.144V70H57.2435ZM64.422 70.144C63.854 70.144 63.342 70.016 62.886 69.76C62.438 69.496 62.082 69.132 61.818 68.668C61.554 68.196 61.422 67.648 61.422 67.024C61.422 66.4 61.554 65.856 61.818 65.392C62.09 64.92 62.454 64.556 62.91 64.3C63.366 64.036 63.874 63.904 64.434 63.904C65.002 63.904 65.51 64.036 65.958 64.3C66.414 64.556 66.774 64.92 67.038 65.392C67.31 65.856 67.446 66.4 67.446 67.024C67.446 67.648 67.31 68.196 67.038 68.668C66.774 69.132 66.414 69.496 65.958 69.76C65.502 70.016 64.99 70.144 64.422 70.144ZM64.422 69.052C64.726 69.052 65.006 68.976 65.262 68.824C65.526 68.672 65.738 68.448 65.898 68.152C66.058 67.848 66.138 67.472 66.138 67.024C66.138 66.576 66.058 66.204 65.898 65.908C65.746 65.604 65.538 65.376 65.274 65.224C65.018 65.072 64.738 64.996 64.434 64.996C64.13 64.996 63.846 65.072 63.582 65.224C63.326 65.376 63.118 65.604 62.958 65.908C62.798 66.204 62.718 66.576 62.718 67.024C62.718 67.472 62.798 67.848 62.958 68.152C63.118 68.448 63.326 68.672 63.582 68.824C63.838 68.976 64.118 69.052 64.422 69.052ZM71.0176 70.144C70.2976 70.144 69.7296 69.92 69.3136 69.472C68.9056 69.024 68.7016 68.356 68.7016 67.468V64.048H69.9736V67.336C69.9736 68.488 70.4456 69.064 71.3896 69.064C71.8616 69.064 72.2496 68.896 72.5536 68.56C72.8576 68.224 73.0096 67.744 73.0096 67.12V64.048H74.2816V70H73.1536L73.0576 68.956C72.8736 69.324 72.6016 69.616 72.2416 69.832C71.8896 70.04 71.4816 70.144 71.0176 70.144ZM75.8997 70V64.048H77.0277L77.1237 65.092C77.3077 64.724 77.5757 64.436 77.9277 64.228C78.2877 64.012 78.6997 63.904 79.1637 63.904C79.8837 63.904 80.4477 64.128 80.8557 64.576C81.2717 65.024 81.4797 65.692 81.4797 66.58V70H80.2197V66.712C80.2197 65.56 79.7477 64.984 78.8037 64.984C78.3317 64.984 77.9397 65.152 77.6277 65.488C77.3237 65.824 77.1717 66.304 77.1717 66.928V70H75.8997ZM85.6898 70.144C85.1138 70.144 84.6058 70.008 84.1658 69.736C83.7258 69.464 83.3818 69.092 83.1338 68.62C82.8858 68.148 82.7618 67.612 82.7618 67.012C82.7618 66.412 82.8858 65.88 83.1338 65.416C83.3818 64.944 83.7258 64.576 84.1658 64.312C84.6138 64.04 85.1258 63.904 85.7018 63.904C86.1738 63.904 86.5858 63.996 86.9378 64.18C87.2978 64.364 87.5778 64.624 87.7778 64.96V61.36H89.0498V70H87.9098L87.7778 69.076C87.5858 69.356 87.3218 69.604 86.9858 69.82C86.6498 70.036 86.2178 70.144 85.6898 70.144ZM85.9178 69.04C86.4618 69.04 86.9058 68.852 87.2498 68.476C87.6018 68.1 87.7778 67.616 87.7778 67.024C87.7778 66.424 87.6018 65.94 87.2498 65.572C86.9058 65.196 86.4618 65.008 85.9178 65.008C85.3738 65.008 84.9258 65.196 84.5738 65.572C84.2218 65.94 84.0458 66.424 84.0458 67.024C84.0458 67.416 84.1258 67.764 84.2858 68.068C84.4458 68.372 84.6658 68.612 84.9458 68.788C85.2338 68.956 85.5578 69.04 85.9178 69.04Z" fill="white"/>
</g>
<defs>
<filter id="filter0_b_12_613" x="-4" y="-4" width="120" height="120" filterUnits="userSpaceOnUse" color-interpolation-filters="sRGB">
<feFlood flood-opacity="0" result="BackgroundImageFix"/>
<feGaussianBlur in="BackgroundImageFix" stdDeviation="2"/>
<feComposite in2="SourceAlpha" operator="in" result="effect1_backgroundBlur_12_613"/>
<feBlend mode="normal" in="SourceGraphic" in2="effect1_backgroundBlur_12_613" result="shape"/>
</filter>
</defs>
</svg>
